<svg xmlns="http://www.w3.org/2000/svg" width="1200" height="630" viewBox="0 0 1200 630">
  <defs>
    <linearGradient id="g" x1="0" y1="0" x2="1" y2="1">
      <stop offset="0" stop-color="#0ea5e9" stop-opacity="0.22" />
      <stop offset="0.5" stop-color="#6366f1" stop-opacity="0.18" />
      <stop offset="1" stop-color="#d946ef" stop-opacity="0.16" />
    </linearGradient>
    <radialGradient id="r" cx="30%" cy="30%" r="70%">
      <stop offset="0" stop-color="#0ea5e9" stop-opacity="0.35" />
      <stop offset="1" stop-color="#0ea5e9" stop-opacity="0" />
    </radialGradient>
    <filter id="b" x="-20%" y="-20%" width="140%" height="140%">
      <feGaussianBlur stdDeviation="18" />
    </filter>
  </defs>
  <rect width="1200" height="630" fill="#0b1220" />
  <rect x="24" y="24" width="1152" height="582" rx="36" fill="url(#g)" />
  <circle cx="320" cy="210" r="170" fill="url(#r)" filter="url(#b)" />
  <circle cx="920" cy="410" r="220" fill="#a855f7" opacity="0.14" filter="url(#b)" />
  <g fill="none" stroke="#ffffff" opacity="0.16">
    <path d="M120 150c180-80 320-80 500 0s320 80 460 0" stroke-width="2" />
    <path d="M120 330c180-80 320-80 500 0s320 80 460 0" stroke-width="2" />
    <path d="M120 510c180-80 320-80 500 0s320 80 460 0" stroke-width="2" />
  </g>
  <g fill="#ffffff">
    <text x="84" y="300" font-size="54" font-family="ui-sans-serif, system-ui, -apple-system, Segoe UI, Roboto, Helvetica, Arial" font-weight="700" opacity="0.92">项目封面</text>
    <text x="84" y="354" font-size="20" font-family="ui-sans-serif, system-ui, -apple-system, Segoe UI, Roboto, Helvetica, Arial" opacity="0.68">请在 Frontmatter 中替换 image 字段为真实截图</text>
  </g>
</svg>

